<?xml version="1.0" encoding="utf-8"?>
<!-- Generator: Adobe Illustrator 16.0.4, SVG Export Plug-In . SVG Version: 6.00 Build 0)  -->
<!DOCTYPE svg PUBLIC "-//W3C//DTD SVG 1.1//EN" "http://www.w3.org/Graphics/SVG/1.1/DTD/svg11.dtd">
<svg version="1.1" id="Calque_1" xmlns="http://www.w3.org/2000/svg" xmlns:xlink="http://www.w3.org/1999/xlink" x="0px" y="0px"
	 width="1392px" height="825px" viewBox="0 0 1392 825" enable-background="new 0 0 1392 825" xml:space="preserve">
<g>
	<g transform="translate(295.9392,292.10805505531806) scale(0.5)">
		<g transform="translate(0,0) scale(1.7409357370199054)">
			<path fill="#818181" stroke="#505050" stroke-width="1.1488" d="M-97.523-234.152l23.538-4.475l8.253,10.919l-2.095,12.279
				l5.173,3.884l0,0l-17.023,11.26l-4.511,13.299l11.922,23.468l1.807,8.091l-4.028,7.625l-26.116,4.314l-22.84,10.437l1.361,16.503
				l-2.327,5.263l-3.383,0.93l0.823,5.335l6.426,4.403l0.751,6.176l7.823-0.162l4.242,2.721l3.007,7.751l-9.022,11.725l-7.536,0.985
				l-6.48,4.08l1.522,10.078l-10.883,18.867l-21.355,9.916l-2.488,7.823l-5.066,2.738l2.291,4.977l-5.674,16.289l-1.773,31.27
				l6.82,16.917l-0.627,12.959l0,0l-7.268,4.852l2.148,17.147l2.166,2.219l-1.807,2.203l-8.95-6.087l-1.092-6.408l-4.816-3.42
				l-12.153,0.43l-6.481-6.281l-1.683-5.961l-10.669-5.621l-0.017-5.729l-9.058-1.305l-13.605-12.423l-11.08-1.416l-0.679-17.881
				l6.318-12.531l6.712-4.976l-1.88-5.656l3.849-14.033l5.925-5.496l9.559,2.667l5.853-5.12l-3.455-14.982l8.467,4.153l2.506-24.882
				l-5.496-4.26l-1.397-10.113l-5.047-2.81l-0.466-6.552l6.014-3.347l3.938,1.396l-1.915-3.813l1.862-3.311l2.345,1.056l6.587-7.214
				l-0.375-6.838l8.109-4.046l2.846-5.459l1.737-8.645l-5.102-5.639l-4.296-11.331l0.627-4.815l4.941-2.202l1.378-6.032l4.941-3.132
				l10.257,1.843l2.022-4.887l9.273-8.448l2.04-12.262l4.887-6.14l14.266-1.432l6.945-7.84l4.081-0.519l4.367-10.776l18.527-15.18
				l-1.217-8.395l6.122-8.914l2.649,0.144l0.448,5.925L-97.523-234.152z"/>
			<path fill="#818181" stroke="#505050" stroke-width="1.1488" d="M1162.768,228.511l14.427,0.771l4.011,2.97l-4.35,6.303
				l3.883,6.139l-7.195,11.438l-1.181,12.172l-11.868,16.164v4.958l-6.338,13.479l4.136,9.916l-4.655,11.886l3.652,8.824
				l-5.226,11.314l-3.096,23.109l-4.583,10.097l5.961,5.28l0.554,5.763l3.096,3.402l6.803,0.518l1.502,5.621l7.376,4.171
				l-2.006,7.501l3.671,3.884l0.016,7.537l5.676,5.549l-1.342,4.439l2.828,8.089l0.339,15.467l-4.725,16.164l-4.868,6.497
				l0.107,5.568l-4.583,3.67l-0.518,21.336l-12.316,13.444l-0.394,4.259l-5.603-1.414l-1.075-5.924l-11.239-4.977l-2.061-2.845
				l1.594-2.506l-4.6-0.574l1.879-1.88l-3.526-5.422l-5.478,4.547l-1.7,5.333l-10.794-6.302l-3.975,11.493l-4.618-1.897
				l-0.841,2.166l-7.947-5.478l0,0l-6.658-26.027l2.845-2.632l-2.346-10.202l5.891-16.772l0.822-14.375l-27.638-16.808l0.913-4.296
				l-4.189-9.469l16.182-25.24l13.694-7.232l14.784-17.057l-14.588-8.503l-20.047-2.848l-7.931-4.617l-8.448-13.228l-0.717-12.137
				l4.6-30.322l8.36-4.976l6.049-17.704l5.603,4.029l11.439-15.683l2.9-20.387l0,0l4.207,1.502l1.737,4.029l4.474-3.759l7.734,4.153
				l3.526-4.798l5.585,1.111l4.795,4.852l5.3-0.859l6.354-5.765l2.774-7.965l8.879-7.339l7.447,2.166L1162.768,228.511z"/>
			<path fill="#818181" stroke="#505050" stroke-width="1.1488" d="M192.565,5.137l12.549,4.778l11.33,14.876l-0.608,7.983
				l16.718,7.627l26.922,0.231l34.352,15.843l0,0l0.876,5.315l-7.302,14.463l-11.726,5.639l-11.42-0.841l-3.706,3.42l4.655,6.623
				l-1.862,3.777l-8.611-1.719l-2.934,4.707l-6.804,3.58l5.137,7.501l-4.546,0.894l0.127,2.651l6.444,9.772l9.916,10.991
				l13.318,7.483l8.412,9.558l0.107,3.49l0,0l-12.602,8.521l2.131,2.255l-0.448,8.2l6.624,4.367l-16.271,14.427l-1.898,13.031
				l7.964,4.904l3.205,8.772l-32.9,3.741l-6.929,4.296l-4.779,12.512l14.429,6.588l-12.029,8.359l-13.981-2.058l-3.133,2.594
				l0.197,3.187l0,0l-7.035-0.215l-11.007,4.887l-24.614,3.865l-44.23-33.562l-14.284-3.973l-8.896-11.153l0,0l15.162-5.155
				l8.216,1.646l-1.326-15.428l-6.354-3.777l-1.504-6.624l-14.266-4.241l-8.573-13.479l-14.465-7.43l-4.153-6.729l-12.011-7.107
				l-7.177,0.717l-8.896-9.649l1.593-9.432l5.711-5.353l21.156,11.742l4.655,0.178l9.399-11.257l-2.524-11.548l9.755-12.547
				l-4.279-15.824l2.203-8.091l8.109-1.647l20.943,4.958l4.366-14.463l13.945-6.677l-1.075-7.767l4.637-6.051l6.892,1.056
				l8.485-11.242l16.146-8.736l4.583-5.137l0.697-11.76L192.565,5.137z"/>
			<path fill="#818181" stroke="#505050" stroke-width="1.1488" d="M-52.326-205.351l5.962,1.646l7.643-5.424l0,0l17.078,10.311
				l4.259-0.107l5.173-4.135l7.214,3.436l3.151,3.527l0.68,18.347l14.533-6.873l6.302,0.483l12.583-4.117l8.181,5.459l15.25,2.309
				l0.145,14.087l-4.637,3.257l-1.952,15.233l-1.647,4.386l-6.444,4.421l-0.446,4.439l1.843,11.152l5.834,0.501l3.759,3.329
				l0.699,17.077l6.623,18.562l-1.683,6.874L46.124-64.352l-11.939,5.353l-2.882-1.218l-0.77-4.958l-5.102-5.585l-6.712,0.18
				L-0.863-51.84l4.207,5.782L2.145-32.311l2.325,4.725l10.115,6.355l0,0l0.303,1.843L0.157-10.455l-6.478,8.807l0.052,12.118
				l17.508,23.771l8.001,15.646l-4.635,1.502l-3.598-1.647l-18.15-27.87l-13.39,3.115l-2.954-3.669l-9.469,2.095l-14.606-1.237
				L-67.63,10.273l-19.404,4.528l6.193,10.274l21.213,7.715l0.071,5.515l5.889,3.956l4.439-7.555l3.921-1.038l2.004,12.226
				l10.131,24.827l-13.031,14.554l-8.091,13.854l-14.266,11.563l-5.513,12.011l0,0l-7.805-2.47l3.062-3.847l-4.082-0.699
				l-0.483-2.918l-7.321,2.649l1.074-3.221l-6.855-0.036l0.518-3.024l-2.363,2.344l-4.654-1.305l1.271-6.553l-3.06-2.129
				l-4.852-0.054l0.233,2.524l-13.873-6.462l-2.774-8.109l-12.082-2.004l-5.961-12.87l-13.157-1.235l-0.537-6.641l-7.213-2.149l0,0
				l0.627-12.959l-6.82-16.917l1.773-31.27l5.674-16.289l-2.291-4.977l5.066-2.738l2.488-7.823l21.355-9.916l10.883-18.867
				l-1.522-10.078l6.48-4.08l7.536-0.985l9.022-11.725l-3.007-7.751l-4.242-2.721l-7.823,0.162l-0.751-6.176l-6.426-4.403
				l-0.823-5.335l3.383-0.93l2.327-5.263l-1.361-16.503l22.84-10.437l26.116-4.314l4.028-7.625l-1.807-8.091l-11.922-23.468
				l4.511-13.299l17.023-11.26l0,0L-52.326-205.351z"/>
			<path fill="#818181" stroke="#505050" stroke-width="1.1488" d="M925.592,184.299l3.007,10.471l3.009-0.394l5.69,5.478
				l9.344-2.059l1.416,3.921l9.021,4.652l3.061,4.601l9.075,1.289l0,0l-1.162,12.208l6.371,17.023l-5.924,10.685l5.87,6.284
				l-3.239,17.344l-4.798,9.702l-2.721,23.951l-6.139,8.932l1.789,10.256l5.836,6.444l-0.198,6.248l5.46,1.719l-6.82,7.463
				l-7.161,2.042l4.065,14.354l-3.92,12.011l0.912,3.813l6.928,5.013l0.249,15.144l4.083,8.198l-1.861,7.804l6.248,7.609
				l9.289-6.123l13.64-3.508l4.995,0.895l3.275,4.044l-4.474,11.975l-15.125,14.822l-22.59,30.663l-1.665,15.287l0,0l-1.952,0.25
				l-0.412,5.315l-6.248,0.342l0.073,4.922l-9.487,4.242l-13.086-3.509l-5.872,6.517l-28.532-14.375l-6.121-8.521l-6.571-0.16
				l-18.401-10.274l-9.38-2.22l0.43-2.077l-15.68,0.626l-4.528,4.565l-5.209-0.894l-0.735-3.722l-2.792-0.037l0,0l5.424-11.132
				l-9.756-16.487l1.916-9.88l-1.861-17.311l11.294,3.295l7.195-0.537l8.485-8.54l10.491-4.725l3.83-15.985l-2.595-13.658
				l4.117-12.761l-19.44-14l-9.075-2.649l4.547-9.075l-2.579-16.575l25.669-33.33l6.123-3.526l12.995-21.749l14.517-6.677
				l0.663-8.233l-4.601-12.601l2.631-11.672l-2.417-8.055l-6.338-7.894l0,0l-3.49-3.848l0.968-7.07l13.495-14.105l9.202,1.038
				l7.733-5.979L925.592,184.299z"/>
			<path fill="#818181" stroke="#505050" stroke-width="1.1488" d="M835.608,206.727l16.236,0.876l6.032,6.284l12.745-4.314
				l-3.902,7.84l2.631,3.221l9.522-4.922l7.751,3.348l2.201-4.44l-1.665-2.827l0,0l6.338,7.894l2.417,8.055l-2.631,11.672
				l4.601,12.601l-0.663,8.233l-14.517,6.677l-12.995,21.749l-6.123,3.526l-25.669,33.33l2.579,16.575l-4.547,9.075l9.075,2.649
				l19.44,14l-4.117,12.761l2.595,13.658l-3.83,15.985l-10.491,4.725l-8.485,8.54l-7.195,0.537l-11.294-3.295l1.861,17.311
				l-1.916,9.88l9.756,16.487l-5.424,11.132l0,0l-7.016,1.789l0.125-4.385l-12.35-6.281l-16.881-0.109l-3.365,1.898l-2.148,6.676
				l-16.897,8.95l0.645-7.536l-5.963,1.002l-2.827-4.296l-11.439-4.94l-2.328-6.016l1.988-11.223l-1.61-15.359l-14.626-7.159
				l-1.075-3.759l-8.59,4.707l-2.113-2.237l-1.575,3.687l-19.099,11.51l-8.682-1.737l-12.8,9.665l0,0l4.44-16.182l12.261-21.173
				l-2.345-13.803l2.667-8.019l12.065-11.904l3.114-20.745l-2.756-6.444l-6.551-5.46l-2.113-7.071l8.628-12.476l0,0l21.104,7.358
				l14.088,1.111l4.384-6.642l0.054-5.89l8.324-0.733l11.457-8.039l-1.164-21.371l10.024-6.426l14.321-26.601l13.782-1.378
				l-4.547-22.304l6.032-4.832l2.597-10.491l0,0l10.704-5.87l-3.472-9.971l-4.924-4.709l0.072-17.381l15.359-13.854l7.858,13.908
				l-3.472,4.602l2.114,13.12L835.608,206.727z"/>
			<path fill="#818181" stroke="#505050" stroke-width="1.1488" d="M443.292-57.801l0.198,4.332l3.419,2.077l4.259-2.166l4.62,2.739
				l4.94-0.77l7.123,7.608l10.382,3.723l-4.779,6.838l-1.914,18.456l-7.016,8.734l8.734,12.566l-3.56,19.745l0,0l-5.836,1.825
				l-14.499,14.75l-15.216-3.223l-3.312,11.85L413.077,62.47l0.125,5.675L422.439,82l-1.075,2.47l-4.029-1.165l-6.103,3.438
				l2.74,13.137l-15.591,14.911l-7.376,13.211l7.788,3.312l4.044,4.707l2.633,11.85l7.41,4.779l-0.339,1.914l-3.51,5.676
				l-7.302-1.683l-1.701,15.037l-5.155,4.958l-0.251,14.392l-5.388,6.783l-6.426,3.403l-8.36-2.936l0,0l-7.05-13.568l-9.059-4.743
				l-7.071,1.987l-7.035-3.49l-6.014-8.772l-17.81-5.727l-2.576-2.793l4.205-6.067l-0.339-6.105l-8.179,0.377l-2.687-2.345
				l-26.922,4.832l0,0l-0.107-3.49l-8.412-9.558l-13.318-7.483l-9.916-10.991l-6.444-9.772l-0.127-2.651l4.546-0.894l-5.137-7.501
				l6.804-3.58l2.934-4.707l8.611,1.719l1.862-3.777l-4.655-6.623l3.706-3.42l11.42,0.841l11.726-5.639l7.302-14.463l-0.876-5.315
				l0,0l1.61-1.665l7.017,4.78l14.211,2.201l36.983-15.411l3.221-16.523l20.211-25.059l1.95-19.386l1.988-2.864l5.047-0.878
				l2.882-6.641l-7.268-9.433l0,0l12.746-10.918l14.715,0.25l5.245-7.822l7.75-4.457l16.917-2.113L443.292-57.801z"/>
			<path fill="#818181" stroke="#505050" stroke-width="1.1488" d="M283.909,153.778l26.922-4.832l2.687,2.345l8.179-0.377
				l0.339,6.105l-4.205,6.067l2.576,2.793l17.81,5.727l6.014,8.772l7.035,3.49l7.071-1.987l9.059,4.743l7.05,13.568l0,0
				l-6.227,8.341l-18.67,3.634l-3.85,5.674l22.966-0.125l14.32,6.246l5.96-2.685l6.623,0.574l9.47,2.755l5.297,4.403l83.217,5.388
				l12.316,20.674l3.884-3.83l14.644,2.828l0,0l-6.641,8.95l-6.426,2.38l-2.633-1.986l-31.735,16.772l-7.378,11.813l-36.712,3.276
				l-1.593,3.169l7.607,2.13l-5.996,11.633l0,0l-12.977,1.647l-4.135-2.183l-1.665,1.756l-0.768,2.97l8.681,9.057l-3.474,6.141
				l-44.517-24.487l-37.195-1.825l0.823,4.706l-2.791,5.048l2.631,5.907l-2.579,5.102l-5.888,6.443l-8.057,2.113l-5.834-3.436
				l-1.11-6.695l-15.538-14.266l-28.335,0.018l-12.834-3.884l-4.297-5.567l-32.362-0.09l2.327-16.271l-3.026-5.729l1.111-3.811
				l-4.94-6.051l-0.43-13.085l-2.221,1.737l0,0l-0.197-3.187l3.133-2.594l13.981,2.058l12.029-8.359l-14.429-6.588l4.779-12.512
				l6.929-4.296l32.9-3.741l-3.205-8.772l-7.964-4.904l1.898-13.031l16.271-14.427l-6.624-4.367l0.448-8.2l-2.131-2.255
				L283.909,153.778z"/>
			<path fill="#818181" stroke="#505050" stroke-width="1.1488" d="M28.958-284.559l21.785,9.344l33.366,6.211l9.129,3.813
				l8.179-1.181l17.668,3.097l-2.022,5.925l3.007,13.496l8.754,10.991l-3.902,14.069l1.952,2.829l36.677,12.566l4.384,3.652
				l11.708,0.984l3.418,4.905l11.135,5.996l4.42,8.11l16.684,14.874l8.663,15.787l11.688,5.031l4.601,5.334l13.497,1.575
				l27.639,14.535l11.581,1.486l2.9,4.224l13.997,3.723l2.739,4.171l0.142,8.18l13.515,5.943l-0.699,7.32l11.672,11.153
				l6.229,11.295l2.309,11.062l7.643,4.672l11.027,13.39l12.762,5.961l4.474-4.368l0,0l7.268,9.433l-2.882,6.641l-5.047,0.878
				l-1.988,2.864l-1.95,19.386L356.87,29.855l-3.221,16.523l-36.983,15.411l-14.211-2.201l-7.017-4.78l-1.61,1.665l0,0
				l-34.352-15.843L232.554,40.4l-16.718-7.627l0.608-7.983l-11.33-14.876l-12.549-4.778l0,0l-13.192-3.956l-12.047,3.794
				l-3.633-2.864l1.826-20.067l-22.375-3.15L120.911-8.433l-7.946,14.679l-4.995,2.685L89.104,1.986l-3.581,3.579l-6.014,1.88
				l-5.351-1.718l-7.411,4.761l-8.808-7.697L42.007,0.786L38.463-5.46l-5.261-1.342L22.55-3.599l-6.82-4.332l-0.841-4.475
				l3.651-7.536l-3.954-1.289l0,0L4.47-27.586l-2.325-4.725l1.199-13.747l-4.207-5.782l19.584-18.741l6.712-0.18l5.102,5.585
				l0.77,4.958l2.882,1.218l11.939-5.353l11.654-12.816l1.683-6.874l-6.623-18.562l-0.699-17.077l-3.759-3.329l-5.834-0.501
				l-1.843-11.152l0.446-4.439l6.444-4.421l1.647-4.386l1.952-15.233l4.637-3.257l-0.145-14.087l-15.25-2.309l-8.181-5.459
				l-12.583,4.117l-6.302-0.483l-14.533,6.873l-0.68-18.347l-3.151-3.527l-7.214-3.436l-5.173,4.135l-4.259,0.107l-17.078-10.311
				l0,0l1.45-17.345l13.013-1.522l9.075-12.905l3.759-18.097l-3.811-9.684l1.432-11.08l14.911-3.115l6.39,7.482l10.113,2.953
				l1.593-11.223L28.958-284.559z"/>
			<path fill="#818181" stroke="#505050" stroke-width="1.1488" d="M994.632,237.05l17.919,1.97l6.426-5.013l12.925,2.649
				l13.228-4.422l2.128,1.129l-1.09,3.403l6.766,1.269l20.514-9.003l2.273,9.774l3.508,1.593l13.873-6.354l0,0l-2.9,20.387
				l-11.439,15.683l-5.603-4.029l-6.049,17.704l-8.36,4.976l-4.6,30.322l0.717,12.137l8.448,13.228l7.931,4.617l20.047,2.848
				l14.588,8.503l-14.784,17.057l-13.694,7.232l-16.182,25.24l4.189,9.469l-0.913,4.296l27.638,16.808l-0.822,14.375l-5.891,16.772
				l2.346,10.202l-2.845,2.632l6.658,26.027l0,0l-6.837,5.872l0.232,2.488l-6.804,0.394l-0.859,1.915l-3.345-0.287l-7.161-7.07
				l-15.286-4.117l-16.307,6.302l-2.077,9.163l-3.009,2.382l-4.868-4.601l-8.234-0.376l-0.877-7.179l-18.366,0.914l-11.455-9.076
				l-3.562-26.277l-4.689-0.145l-5.227,10.455l-12.423,3.276l0,0l1.665-15.287l22.59-30.663l15.125-14.822l4.474-11.975
				l-3.275-4.044l-4.995-0.895l-13.64,3.508l-9.289,6.123l-6.248-7.609l1.861-7.804l-4.083-8.198l-0.249-15.144l-6.928-5.013
				l-0.912-3.813l3.92-12.011l-4.065-14.354l7.161-2.042l6.82-7.463l-5.46-1.719l0.198-6.248l-5.836-6.444l-1.789-10.256
				l6.139-8.932l2.721-23.951l4.798-9.702l3.239-17.344l-5.87-6.284l5.924-10.685l-6.371-17.023l1.162-12.208l0,0l6.248-0.036
				l12.655,12.226l7.359,3.453l2.452,3.508L994.632,237.05z"/>
			<path fill="#818181" stroke="#505050" stroke-width="1.1488" d="M14.586-21.231l3.954,1.289l-3.651,7.536l0.841,4.475l6.82,4.332
				l10.652-3.204l5.261,1.342l3.545,6.246l15.931,2.005l8.808,7.697l7.411-4.761l5.351,1.718l6.014-1.88l3.581-3.579l18.867,6.945
				l4.995-2.685l7.946-14.679l22.232-12.672l22.375,3.15l-1.826,20.067l3.633,2.864l12.047-3.794l13.192,3.956l0,0l-9.093,5.333
				l-0.697,11.76l-4.583,5.137l-16.146,8.736l-8.485,11.242l-6.892-1.056l-4.637,6.051l1.075,7.767l-13.945,6.677l-4.366,14.463
				l-20.943-4.958l-8.109,1.647l-2.203,8.091l4.279,15.824l-9.755,12.547l2.524,11.548l-9.399,11.257l-4.655-0.178L55.38,125.282
				l-5.711,5.353l-1.593,9.432l8.896,9.649l7.177-0.717l12.011,7.107l4.153,6.729l14.465,7.43l8.573,13.479l14.266,4.241
				l1.504,6.624l6.354,3.777l1.326,15.428l-8.216-1.646l-15.162,5.155l0,0l-17.238-0.661l-8.36,13.657l-6.908-0.268l-9.737-7.859
				l-5.013-0.966l-18.743-17.184l-11.866-2.776l-26.564-15.573l0.393-6.515l-9.684-11.314l-8.414-0.43l-0.321,5.532l-10.525,1.95
				l1.593-4.277l-3.759-1.414l3.526-1.362l-1.217-6.139l-14.087-15.715l-0.591-8.845l-3.777-6.372l-19.761-4.043l-6.444-4.047l0,0
				l5.513-12.011l14.266-11.563l8.091-13.854l13.031-14.554l-10.131-24.827l-2.004-12.226l-3.921,1.038l-4.439,7.555l-5.889-3.956
				l-0.071-5.515l-21.213-7.715l-6.193-10.274l19.404-4.528l20.066,11.903l14.606,1.237l9.469-2.095l2.954,3.669l13.39-3.115
				l18.15,27.87l3.598,1.647l4.635-1.502l-8.001-15.646L-6.269,10.47L-6.322-1.648l6.478-8.807l14.732-8.932L14.586-21.231z"/>
			<path fill="#818181" stroke="#505050" stroke-width="1.1488" d="M489.619,21.068l4.759,6.121l10.079,4.797l9.648,1.29
				l4.743,4.707l1.539,3.741l-2.899,14.517l5.246-1.504l11.454,5.406l16.29-4.438l11.652,4.187l5.318,12.549l-2.185,8.609
				l8.63,3.187l14.354,1.181l6.498,4.528l14.088-9.147l10.615,1.952l12.725-13.139l10.597-1.52l3.472,2.594l7.394,9.326
				l-1.165,11.457l-8.18,20.62l-4.619,24.29l0,0l-12.011,6.66l-3.956,11.296l-6.032,3.902l-2.953,17.756l-8.02,8.897l-12.099,1.162
				l-7.107,19.28l-11.277,12.728l2.703,20.888l-9.433,3.993l-6.604-6.157l0,0l-7.643-10.007l-7.161,0.627l-12.423,9.647
				l-14.499,4.743l3.241,12.28l0,0l-14.644-2.828l-3.884,3.83l-12.316-20.674l-83.217-5.388l-5.297-4.403l-9.47-2.755l-6.623-0.574
				l-5.96,2.685l-14.32-6.246l-22.966,0.125l3.85-5.674l18.67-3.634l6.227-8.341l0,0l8.36,2.936l6.426-3.403l5.388-6.783
				l0.251-14.392l5.155-4.958l1.701-15.037l7.302,1.683l3.51-5.676l0.339-1.914l-7.41-4.779l-2.633-11.85l-4.044-4.707l-7.788-3.312
				l7.376-13.211l15.591-14.911l-2.74-13.137l6.103-3.438l4.029,1.165l1.075-2.47l-9.238-13.855l-0.125-5.675l17.756-11.187
				l3.312-11.85l15.216,3.223l14.499-14.75l5.836-1.825l0,0L489.619,21.068z"/>
			<path fill="#818181" stroke="#505050" stroke-width="1.1488" d="M562.883,236.783l-5.102,5.691l0.644,5.46l-4.528,5.799
				l0.537,2.631l14.784,3.007l7.698-1.629l6.426,4.35l0.717,4.35l3.167,2.185l12.316,1.289l4.456-6.159l6.695,3.294l17.326-6.39
				l17.81,7.501l10.777,1.414l8.484,21.785l0.378,16.576l10.274,7.482l30.967,11.706l0,0l-8.628,12.476l2.113,7.071l6.551,5.46
				l2.756,6.444l-3.114,20.745l-12.065,11.904l-2.667,8.019l2.345,13.803l-12.261,21.173L677.3,450.4l0,0l-22.427-3.741
				l-5.264-10.613l2.864-10.669l-15-0.518l-4.065,1.271l-0.018,2.165l-9.344,0.178l-0.212-4.189l4.562-1.986l-8.448-1.934
				l-1.611-4.187l-5.315-0.877l1.719-4.065l-3.455-4.314l-10.686-2.059l-12.656-9.344l-5.585,4.743l-3.471-4.205l-2.524,3.508
				l-20.604-9.166l0.77-5.173l4.887-5.799l2.274-23.752l-12.28-22.806l-57.639-9.022l-6.873-12.852l-6.444,1.988l-1.325-5.497
				l-9.829-3.777l-0.177-6.317l-4.42,1.54l-3.993-1.649l-9.29,14.966l-18.527-0.037l0,0l5.996-11.633l-7.607-2.13l1.593-3.169
				l36.712-3.276l7.378-11.813l31.735-16.772l2.633,1.986l6.426-2.38l6.641-8.95l0,0l-3.241-12.28l14.499-4.743l12.423-9.647
				l7.161-0.627L562.883,236.783z"/>
			<path fill="#818181" stroke="#505050" stroke-width="1.1488" d="M657.717,137.097l6.463,9.825l15.679-3.758l6.731,3.455
				l7.75-7.303l6.39-2.292l12.441,0.896l10.542,5.227l6.695,9.342l4.601,0.181l13.192,10.919l6.874-2.452l21.981,18.831
				l3.007,11.384l9.129,14.875l-1.432,8.681l19.405,5.979l0,0l-2.597,10.491l-6.032,4.832l4.547,22.304l-13.782,1.378
				l-14.321,26.601l-10.024,6.426l1.164,21.371l-11.457,8.039l-8.324,0.733l-0.054,5.89l-4.384,6.642l-14.088-1.111l-21.104-7.358
				l0,0l-30.967-11.706l-10.274-7.482l-0.378-16.576l-8.484-21.785l-10.777-1.414l-17.81-7.501l-17.326,6.39l-6.695-3.294
				l-4.456,6.159l-12.316-1.289l-3.167-2.185l-0.717-4.35l-6.426-4.35l-7.698,1.629l-14.784-3.007l-0.537-2.631l4.528-5.799
				l-0.644-5.46l5.102-5.691l0,0l6.604,6.157l9.433-3.993l-2.703-20.888l11.277-12.728l7.107-19.28l12.099-1.162l8.02-8.897
				l2.953-17.756l6.032-3.902l3.956-11.296l12.011-6.66l0,0l6.766,2.023l8.287-3.436L657.717,137.097z"/>
		</g>
	</g>
</g>
</svg>
